<svg width="26" height="27" viewBox="0 0 26 27" fill="none" xmlns="http://www.w3.org/2000/svg">
<path d="M16.2305 12.4414L17.2966 18.838" stroke="#6F6F6F" stroke-width="1.91897" stroke-linecap="round"/>
<path d="M9.8335 12.4414L8.7674 18.838" stroke="#6F6F6F" stroke-width="1.91897" stroke-linecap="round"/>
<path d="M9.8335 7.11008V6.04398C9.8335 4.27762 11.2654 2.8457 13.0318 2.8457C14.7981 2.8457 16.2301 4.27762 16.2301 6.04398V7.11008" stroke="#6F6F6F" stroke-width="1.91897" stroke-linecap="round"/>
<path d="M21.7987 14.0683C21.1748 10.7409 20.8628 9.07713 19.6785 8.09423C18.4942 7.11133 16.8014 7.11133 13.416 7.11133H12.6471C9.2617 7.11133 7.56897 7.11133 6.38465 8.09423C5.20033 9.07713 4.88838 10.7409 4.26448 14.0683C3.38717 18.7473 2.94851 21.0868 4.22742 22.6278C5.50633 24.1688 7.8866 24.1688 12.6471 24.1688H13.416C18.1765 24.1688 20.5568 24.1688 21.8357 22.6278C22.5777 21.7338 22.7416 20.5709 22.577 18.8384" stroke="#6F6F6F" stroke-width="1.91897" stroke-linecap="round"/>
</svg>
